<svg width="33" height="30" viewBox="0 0 33 30" fill="none" xmlns="http://www.w3.org/2000/svg">
<path d="M29.4231 6.92308H28.8462V5.76923C28.8462 2.58808 26.2581 0 23.0769 0H9.23077C6.04962 0 3.46154 2.58808 3.46154 5.76923V6.92308H2.88462C2.11985 6.92399 1.38667 7.2282 0.845896 7.76897C0.305124 8.30974 0.000916072 9.04293 0 9.80769V12.6923C0 12.9983 0.121566 13.2918 0.337954 13.5082C0.554342 13.7246 0.847827 13.8462 1.15385 13.8462C1.45987 13.8462 1.75335 13.7246 1.96974 13.5082C2.18613 13.2918 2.30769 12.9983 2.30769 12.6923V9.80769C2.30769 9.65468 2.36848 9.50794 2.47667 9.39975C2.58486 9.29155 2.73161 9.23077 2.88462 9.23077H3.46154V20.7692C3.46154 22.6477 4.37769 24.3035 5.77154 25.3569L5.76923 25.3846V27.6923C5.76923 28.3043 6.01236 28.8913 6.44514 29.3241C6.87791 29.7569 7.46488 30 8.07692 30H9.23077C9.84281 30 10.4298 29.7569 10.8626 29.3241C11.2953 28.8913 11.5385 28.3043 11.5385 27.6923V26.5385H20.7692V27.6923C20.7692 28.3043 21.0124 28.8913 21.4451 29.3241C21.8779 29.7569 22.4649 30 23.0769 30H24.2308C24.8428 30 25.4298 29.7569 25.8626 29.3241C26.2953 28.8913 26.5385 28.3043 26.5385 27.6923V25.3846L26.5362 25.3569C27.93 24.3023 28.8462 22.6477 28.8462 20.7692V9.23077H29.4231C29.5761 9.23077 29.7228 9.29155 29.831 9.39975C29.9392 9.50794 30 9.65468 30 9.80769V12.6923C30 12.9983 30.1216 13.2918 30.338 13.5082C30.5543 13.7246 30.8478 13.8462 31.1538 13.8462C31.4599 13.8462 31.7534 13.7246 31.9697 13.5082C32.1861 13.2918 32.3077 12.9983 32.3077 12.6923V9.80769C32.3077 8.21769 31.0142 6.92308 29.4231 6.92308ZM8.65385 23.0769C8.42648 23.0768 8.20136 23.032 7.99133 22.9449C7.7813 22.8578 7.59049 22.7302 7.42977 22.5694C7.26905 22.4086 7.14158 22.2177 7.05465 22.0076C6.96771 21.7975 6.923 21.5724 6.92308 21.345C6.92315 21.1176 6.96801 20.8925 7.05509 20.6825C7.14217 20.4725 7.26976 20.2816 7.43058 20.1209C7.59141 19.9602 7.78231 19.8327 7.9924 19.7458C8.20248 19.6589 8.42764 19.6142 8.655 19.6142C9.11418 19.6144 9.5545 19.7969 9.87908 20.1217C10.2037 20.4465 10.3859 20.887 10.3858 21.3462C10.3856 21.8053 10.2031 22.2456 9.87826 22.5702C9.55346 22.8948 9.11303 23.0771 8.65385 23.0769ZM23.6538 23.0769C23.4265 23.0768 23.2014 23.032 22.9913 22.9449C22.7813 22.8578 22.5905 22.7302 22.4298 22.5694C22.2691 22.4086 22.1416 22.2177 22.0546 22.0076C21.9677 21.7975 21.923 21.5724 21.9231 21.345C21.9232 21.1176 21.968 20.8925 22.0551 20.6825C22.1422 20.4725 22.2698 20.2816 22.4306 20.1209C22.5914 19.9602 22.7823 19.8327 22.9924 19.7458C23.2025 19.6589 23.4276 19.6142 23.655 19.6142C24.1142 19.6144 24.5545 19.7969 24.8791 20.1217C25.2037 20.4465 25.3859 20.887 25.3858 21.3462C25.3856 21.8053 25.2031 22.2456 24.8783 22.5702C24.5535 22.8948 24.113 23.0771 23.6538 23.0769ZM26.5385 13.2404C26.5385 14.3677 25.7273 15.3496 24.6127 15.5181C19.005 16.3616 13.3027 16.3616 7.695 15.5181C6.58038 15.3496 5.76923 14.3677 5.76923 13.2404V6.92308C5.76923 6.31104 6.01236 5.72407 6.44514 5.29129C6.87791 4.85852 7.46488 4.61538 8.07692 4.61538H24.2308C24.8428 4.61538 25.4298 4.85852 25.8626 5.29129C26.2953 5.72407 26.5385 6.31104 26.5385 6.92308V13.2404Z" fill="#595959"/>
</svg>
