<svg width="30" height="30" viewBox="0 0 30 30" fill="none" xmlns="http://www.w3.org/2000/svg">
<path d="M29.5539 0.476247L29.5238 0.446118C27.9877 -1.01468 24.9201 1.57973 24.9201 1.57973L19.3506 5.96451L13.4873 4.92536C14.3332 3.69922 14.5879 2.48198 14.024 1.91806C13.2936 1.18766 11.4674 1.82967 9.94522 3.35189C9.68852 3.6082 9.44977 3.88188 9.23065 4.17098L4.72865 3.3731L1.72989 5.92823L13.954 11.5374L6.11713 21.0068L1.23614 20.0917L0 21.326L8.67418 30L9.9084 28.7639L8.99331 23.8829L18.4628 16.046L24.0719 28.27L26.6271 25.2713L25.8292 20.7693C26.1183 20.5502 26.392 20.3114 26.6483 20.0547C28.1706 18.5325 28.8126 16.7064 28.0822 15.9761C27.5182 15.4121 26.3009 15.6669 25.0747 16.5127L24.0356 10.6495L28.4204 5.07993C28.4204 5.07993 31.0148 2.01229 29.5539 0.476247Z" fill="#595959"/>
</svg>
