<svg width="39" height="30" viewBox="0 0 39 30" fill="none" xmlns="http://www.w3.org/2000/svg">
<path d="M34.0909 12.8437C33.2312 12.4664 32.3025 12.2719 31.3636 12.2727H6.81818C5.87941 12.2718 4.95069 12.466 4.09091 12.8429C2.87574 13.3743 1.84171 14.2482 1.11519 15.3578C0.388681 16.4674 0.00116118 17.7646 0 19.0909V28.6364C0 28.998 0.143668 29.3449 0.3994 29.6006C0.655131 29.8563 1.00198 30 1.36364 30C1.7253 30 2.07214 29.8563 2.32787 29.6006C2.5836 29.3449 2.72727 28.998 2.72727 28.6364V27.9545C2.72948 27.7744 2.80203 27.6023 2.92942 27.4749C3.05681 27.3475 3.22895 27.2749 3.40909 27.2727H34.7727C34.9529 27.2749 35.125 27.3475 35.2524 27.4749C35.3798 27.6023 35.4523 27.7744 35.4545 27.9545V28.6364C35.4545 28.998 35.5982 29.3449 35.8539 29.6006C36.1097 29.8563 36.4565 30 36.8182 30C37.1798 30 37.5267 29.8563 37.7824 29.6006C38.0382 29.3449 38.1818 28.998 38.1818 28.6364V19.0909C38.1805 17.7648 37.7929 16.4677 37.0664 15.3583C36.3399 14.2489 35.3059 13.3751 34.0909 12.8437ZM29.3182 0H8.86364C7.59783 0 6.38387 0.50284 5.48881 1.3979C4.59375 2.29296 4.09091 3.50692 4.09091 4.77273V10.9091C4.09095 10.9619 4.10326 11.014 4.12688 11.0613C4.1505 11.1085 4.18478 11.1496 4.22702 11.1814C4.26925 11.2131 4.31828 11.2346 4.37024 11.2441C4.4222 11.2537 4.47567 11.251 4.52642 11.2364C5.27085 11.0186 6.04257 10.9084 6.81818 10.9091H7.17869C7.26284 10.9096 7.34421 10.879 7.40715 10.8232C7.47008 10.7673 7.51014 10.6901 7.5196 10.6065C7.59398 9.94022 7.91119 9.32465 8.41065 8.87738C8.91011 8.43012 9.55682 8.1825 10.2273 8.18182H15C15.6709 8.18187 16.3182 8.42921 16.8182 8.87653C17.3182 9.32386 17.6358 9.93978 17.7102 10.6065C17.7197 10.6901 17.7597 10.7673 17.8227 10.8232C17.8856 10.879 17.967 10.9096 18.0511 10.9091H20.1358C20.2199 10.9096 20.3013 10.879 20.3642 10.8232C20.4272 10.7673 20.4672 10.6901 20.4767 10.6065C20.551 9.94066 20.8679 9.32544 21.3668 8.87823C21.8657 8.43103 22.5118 8.18313 23.1818 8.18182H27.9545C28.6254 8.18187 29.2728 8.42921 29.7728 8.87653C30.2728 9.32386 30.5903 9.93978 30.6648 10.6065C30.6742 10.6901 30.7143 10.7673 30.7772 10.8232C30.8402 10.879 30.9215 10.9096 31.0057 10.9091H31.3636C32.1393 10.9087 32.911 11.0192 33.6554 11.2372C33.7062 11.2519 33.7598 11.2545 33.8118 11.245C33.8638 11.2354 33.9129 11.2138 33.9551 11.182C33.9974 11.1501 34.0317 11.1089 34.0552 11.0616C34.0788 11.0142 34.091 10.962 34.0909 10.9091V4.77273C34.0909 3.50692 33.5881 2.29296 32.693 1.3979C31.798 0.50284 30.584 0 29.3182 0Z" fill="#595959"/>
</svg>
