<svg width="30" height="30" viewBox="0 0 30 30" fill="none" xmlns="http://www.w3.org/2000/svg">
<path d="M11.842 6.96307V8.51042L14.8452 7.91043C14.9473 7.88967 15.0525 7.88967 15.1546 7.91043L18.1578 8.51042V6.96307L14.9999 6.33149L11.842 6.96307ZM11.842 10.1209V22.7224L14.8452 22.1224C14.9473 22.1017 15.0525 22.1017 15.1546 22.1224L18.1578 22.7224V10.1209L14.9999 9.48936L11.842 10.1209ZM15.438 0.132589C15.3083 0.0461324 15.1558 0 14.9999 0C14.844 0 14.6915 0.0461324 14.5617 0.132589C13.7244 0.689724 13.0378 1.44536 12.5633 2.33217C12.0887 3.21897 11.841 4.2094 11.842 5.21518V5.35334L14.8452 4.75256C14.9473 4.7318 15.0525 4.7318 15.1546 4.75256L18.1578 5.35255V5.21518C18.1578 3.16809 17.1409 1.26784 15.438 0.132589ZM11.8823 24.325C12.0699 26.3844 12.9759 28.3122 14.4417 29.7708C14.5904 29.9176 14.7909 30 14.9999 30C15.2089 30 15.4094 29.9176 15.558 29.7708C17.0238 28.3122 17.9299 26.3844 18.1175 24.325L14.9999 23.7014L11.8823 24.325ZM19.7367 23.054C19.7367 24.745 19.477 26.3698 18.7657 27.9171L21.663 29.8671C22.1793 30.2145 22.8946 29.834 22.8946 29.2119V26.054C22.8946 25.8171 22.7919 25.5961 22.6104 25.4461L19.7367 23.054ZM10.2631 23.054L7.38942 25.4461C7.20784 25.5961 7.10521 25.8171 7.10521 26.054V29.2119C7.10521 29.8134 7.81179 30.2074 8.33678 29.8671L11.2341 27.9171C10.6026 26.5435 10.2631 25.0435 10.2631 23.4961V23.054ZM1.57894 14.9849V16.7059L10.2631 12.9401V17.2427L1.57894 19.5559V20.5269C1.57894 20.9611 1.22368 21.3164 0.789468 21.3164C0.355261 21.3164 0 20.9611 0 20.5269V11.0533C0 10.6191 0.355261 10.2638 0.789468 10.2638C1.22368 10.2638 1.57894 10.6191 1.57894 11.0533V12.1112L10.2631 7.47701V11.2191L1.57894 14.9849ZM29.9998 11.0525V20.5277C29.9998 20.9619 29.6445 21.3172 29.2103 21.3172C28.7761 21.3172 28.4208 20.9619 28.4208 20.5277V19.5567L19.7367 17.2435V12.9393L28.4208 16.6972V14.9762L19.7367 11.2183V7.47622L28.4208 12.1104V11.0525C28.4208 10.6183 28.7761 10.263 29.2103 10.263C29.6445 10.263 29.9998 10.6183 29.9998 11.0525Z" fill="#595959"/>
</svg>
