<svg width="33" height="30" viewBox="0 0 33 30" fill="none" xmlns="http://www.w3.org/2000/svg">
<path d="M12.2727 0C11.9111 0 11.5642 0.143668 11.3085 0.3994C11.0528 0.655131 10.9091 1.00198 10.9091 1.36364V4.09091H8.64545C7.81773 4.09091 7.06909 4.58455 6.74318 5.34545L4.62955 10.2818C4.54987 10.4682 4.41716 10.627 4.24792 10.7385C4.07869 10.8501 3.8804 10.9094 3.67773 10.9091H1.36364C1.00198 10.9091 0.655131 11.0528 0.3994 11.3085C0.143669 11.5642 1.48107e-07 11.9111 1.48107e-07 12.2727V13.6364C-0.000117937 13.8898 0.0703772 14.1382 0.203577 14.3538C0.336776 14.5693 0.52741 14.7435 0.754091 14.8568L2.11773 15.5386C2.30059 15.6301 2.45443 15.7707 2.56206 15.9445C2.6697 16.1184 2.7269 16.3187 2.72727 16.5232V27.2727C2.72727 28.7591 3.96818 30 5.45455 30C6.94091 30 8.18182 28.7591 8.18182 27.2727V26.5909C8.18182 26.4101 8.25365 26.2367 8.38152 26.1088C8.50938 25.9809 8.68281 25.9091 8.86364 25.9091H23.8636C24.0445 25.9091 24.2179 25.9809 24.3458 26.1088C24.4736 26.2367 24.5455 26.4101 24.5455 26.5909V27.2727C24.5455 28.7591 25.7864 30 27.2727 30C28.7591 30 30 28.7591 30 27.2727V16.5232C30 16.1059 30.2359 15.7241 30.6095 15.5386L31.9732 14.8568C32.1999 14.7435 32.3905 14.5693 32.5237 14.3538C32.6569 14.1382 32.7274 13.8898 32.7273 13.6364V12.2727C32.7273 11.9111 32.5836 11.5642 32.3279 11.3085C32.0721 11.0528 31.7253 10.9091 31.3636 10.9091H29.0495C28.847 10.9095 28.6488 10.8504 28.4796 10.7391C28.3104 10.6278 28.1776 10.4693 28.0977 10.2832L25.9841 5.34545C25.8248 4.97295 25.5596 4.65546 25.2214 4.43242C24.8832 4.20938 24.4869 4.09062 24.0818 4.09091H21.8182V1.36364C21.8182 1.00198 21.6745 0.655131 21.4188 0.3994C21.1631 0.143668 20.8162 0 20.4545 0H12.2727ZM9.75545 6.81818H22.9636C23.3768 6.81818 23.7505 7.06364 23.9141 7.44409L26.2977 13.0105C26.3268 13.0788 26.3384 13.1533 26.3317 13.2272C26.3249 13.3012 26.3 13.3723 26.2591 13.4343C26.2182 13.4962 26.1626 13.5471 26.0972 13.5824C26.0319 13.6177 25.9588 13.6362 25.8845 13.6364H6.84273C6.76847 13.6362 6.69541 13.6177 6.63006 13.5824C6.56471 13.5471 6.5091 13.4962 6.46819 13.4343C6.42728 13.3723 6.40234 13.3012 6.3956 13.2272C6.38885 13.1533 6.40052 13.0788 6.42955 13.0105L8.81318 7.44409C8.89242 7.25948 9.02375 7.10196 9.1911 6.9908C9.35844 6.87963 9.55456 6.81965 9.75545 6.81818ZM6.13636 17.7273H10.2273C10.605 17.7273 10.9091 18.0314 10.9091 18.4091V19.7727C10.9091 20.1505 10.605 20.4545 10.2273 20.4545H6.13636C6.04678 20.4547 5.95803 20.4372 5.87523 20.403C5.79243 20.3688 5.71719 20.3186 5.65384 20.2552C5.5905 20.1919 5.54028 20.1167 5.50608 20.0339C5.47188 19.9511 5.45437 19.8623 5.45455 19.7727V18.4091C5.45455 18.0314 5.75864 17.7273 6.13636 17.7273ZM22.5 17.7273H26.5909C26.9686 17.7273 27.2727 18.0314 27.2727 18.4091V19.7727C27.2727 20.1505 26.9686 20.4545 26.5909 20.4545H22.5C22.4104 20.4547 22.3217 20.4372 22.2389 20.403C22.1561 20.3688 22.0808 20.3186 22.0175 20.2552C21.9541 20.1919 21.9039 20.1167 21.8697 20.0339C21.8355 19.9511 21.818 19.8623 21.8182 19.7727V18.4091C21.8182 18.0314 22.1223 17.7273 22.5 17.7273Z" fill="#595959"/>
</svg>
