<svg width="30" height="30" viewBox="0 0 30 30" fill="none" xmlns="http://www.w3.org/2000/svg">
<path d="M8.18384 24.9055L9.70589 25.9201H30V24.9055H8.18384ZM18.8385 28.9645H24.9266V29.9793H18.8385V28.9645ZM16.8088 26.9349H26.9558V27.9498H16.8088V26.9349ZM25.093 15.619C26.8762 17.4023 26.8762 20.2935 25.093 22.0768C23.3097 23.8597 20.4186 23.8597 18.6353 22.0768C16.8522 20.2935 16.8522 17.4023 18.6353 15.619C20.4186 13.836 23.3097 13.836 25.093 15.619Z" fill="#ED7E24"/>
<path d="M4.94374 24.2535C7.93627 19.2838 9.73111 13.6859 10.1862 7.90268L15.6621 13.3963C16.5263 11.6859 16.1995 9.61415 14.8503 8.25305L14.3679 7.76659C14.0466 7.44356 13.6765 7.1731 13.2711 6.96514L18.3647 6.98792C17.7667 5.16691 16.0703 3.93292 14.1536 3.92498L13.4681 3.92193C12.9785 3.92058 12.4921 4.00054 12.0287 4.15855L15.6819 0.518177C13.9715 -0.346005 11.9003 -0.0191943 10.5392 1.3296L10.0527 1.81238C9.72947 2.13348 9.45902 2.50362 9.25132 2.90912C9.04657 2.50202 8.77929 2.12952 8.45922 1.80517L7.97656 1.31861C6.6283 -0.0424915 4.5601 -0.387992 2.84218 0.460754L6.46126 4.13314C5.99902 3.97134 5.5132 3.8871 5.02347 3.88383L4.33856 3.88096C2.42236 3.87227 0.715419 5.09051 0.100972 6.90561L5.19499 6.92849C4.78768 7.13287 4.4151 7.4001 4.09093 7.72039L3.60417 8.20317C2.24319 9.55165 1.89777 11.6199 2.7468 13.3379L8.14719 8.01719C7.77512 13.5763 5.75965 18.8994 2.35666 23.3109C1.59273 23.0936 0.815549 22.926 0.029987 22.8089L0 29.4044L11.669 29.4548L11.6468 29.427C9.84462 27.2053 7.54961 25.4339 4.94374 24.2535ZM3.55426 28.9138L2.5395 28.9092L2.54395 27.8944L3.55853 27.899L3.55426 28.9138ZM6.60216 27.9126L5.5875 27.908L5.59244 26.8934L6.60724 26.8978L6.60216 27.9126Z" fill="#ED7E24"/>
</svg>
