<svg width="26" height="30" viewBox="0 0 26 30" fill="none" xmlns="http://www.w3.org/2000/svg">
<path d="M12.6316 0C6.31577 0 0 0.789499 0 6.31577V21.3158C0 24.3632 2.47892 26.8422 5.52634 26.8422L3.15792 29.2106V30.0001H6.67895L9.83687 26.8422H15.7895L18.9474 30H22.1053V29.2105L19.7369 26.8421C22.7842 26.8421 25.2632 24.3632 25.2632 21.3157V6.31577C25.2632 0.789499 19.6105 0 12.6316 0ZM5.52634 23.6842C4.21579 23.6842 3.15792 22.6264 3.15792 21.3158C3.15792 20.0053 4.21579 18.9474 5.52634 18.9474C6.8369 18.9474 7.89477 20.0053 7.89477 21.3158C7.89477 22.6264 6.83682 23.6842 5.52634 23.6842ZM11.0526 12.6316H3.15792V6.31577H11.0527V12.6316H11.0526ZM19.7369 23.6842C18.4263 23.6842 17.3685 22.6264 17.3685 21.3158C17.3685 20.0053 18.4263 18.9474 19.7369 18.9474C21.0474 18.9474 22.1053 20.0053 22.1053 21.3158C22.1053 22.6264 21.0474 23.6842 19.7369 23.6842ZM22.1053 12.6316H14.2105V6.31577H22.1053V12.6316Z" fill="#595959"/>
</svg>
